<?xml version="1.0" encoding="UTF-8" standalone="no" ?>
<!DOCTYPE svg PUBLIC "-//W3C//DTD SVG 1.1//EN" "http://www.w3.org/Graphics/SVG/1.1/DTD/svg11.dtd">
<svg xmlns="http://www.w3.org/2000/svg" xmlns:xlink="http://www.w3.org/1999/xlink" version="1.1" width="51.35217" height="62" viewBox="59 19.999982473963627 381 460.00003505207275" xml:space="preserve">
<desc>Created with Fabric.js 5.3.0</desc>
<defs>
</defs>
<g transform="matrix(15.8749999952 0 0 15.6872398343 249.5 250)" id="K8Z44_gyllTH-W8v7GNKY"  >
<g style="" vector-effect="non-scaling-stroke"   >
		<g transform="matrix(0 0.3948833365 -0.5357132621 0 0 0)" id="l_S1cbEgEyCmY9fquY3DP"  >
<path style="stroke: rgb(0,0,0); stroke-width: 0; stroke-dasharray: none; stroke-linecap: butt; stroke-dashoffset: 0; stroke-linejoin: miter; stroke-miterlimit: 4; fill: rgb(105,53,2); fill-rule: nonzero; opacity: 1;" vector-effect="non-scaling-stroke"  transform=" translate(-0.000005, -0.0000030342)" d="M 25.43967 -19.09538 C 19.51052 -22.43046 8.87611 -22.400029999999997 0.8352599999999981 -22.400029999999997 C -21.764740000000003 -22.400029999999997 -35.98147 -4.686619999999998 -36.681470000000004 -3.786619999999999 L -36.21829 -0.000029999999999308358 L -37.128930000000004 3.846110000000001 C -36.42893 4.746110000000001 -21.764740000000003 22.39997 0.8352599999999981 22.39997 C 10.158179999999998 22.39997 19.03373 22.46999 25.43967 18.35494 C 34.56259 12.49456 36.572630000000004 3.9831499999999984 36.983869999999996 3.513169999999999 L 36.86557 -0.11266000000000131 L 37.12894 -3.8837500000000014 C 36.67799 -4.463540000000002 36.17527 -13.05672 25.43967 -19.095380000000002 z" stroke-linecap="round" />
</g>
		<g transform="matrix(0 0.3537276276 -0.478793728 0 -0.0499998273 -0.0615978759)" id="gkW--EfZniMvUDHWRHTc1"  >
<path style="stroke: rgb(0,0,0); stroke-width: 0; stroke-dasharray: none; stroke-linecap: butt; stroke-dashoffset: 0; stroke-linejoin: miter; stroke-miterlimit: 4; fill: rgb(255,225,45); fill-rule: nonzero; opacity: 1;" vector-effect="non-scaling-stroke"  transform=" translate(-0.000005, -0.0000030342)" d="M 25.46783 -19.09538 C 19.53868 -22.43046 8.90427 -22.400029999999997 0.8634199999999979 -22.400029999999997 C -21.736580000000004 -22.400029999999997 -36.09601 -5.000419999999998 -36.79601 -4.100419999999996 L -36.19013 -0.000029999999996199733 L -37.528870000000005 4.056480000000004 C -36.82887 4.956480000000004 -21.736580000000004 22.399970000000003 0.8634199999999979 22.399970000000003 C 10.186339999999998 22.399970000000003 19.06189 22.469990000000003 25.46783 18.354940000000003 C 34.59075 12.494560000000003 36.96496 4.810990000000002 37.3762 4.3410100000000025 L 36.89373 -0.11265999999999732 L 37.52888 -4.325019999999998 C 37.07793 -4.904809999999998 36.20343 -13.056709999999999 25.46783 -19.09538 z" stroke-linecap="round" />
</g>
		<g transform="matrix(0.0912355221 0 0 0.0362325247 -0.0249983745 -0.2115998257)" id="2z88hnc4tAeIuljLoZiqF"  >
<path style="stroke: rgb(0,0,0); stroke-width: 0; stroke-dasharray: none; stroke-linecap: butt; stroke-dashoffset: 0; stroke-linejoin: miter; stroke-miterlimit: 4; fill: rgb(105,53,2); fill-rule: nonzero; opacity: 1;" vector-effect="non-scaling-stroke"  transform=" translate(0, 0.000005)" d="M 9.86458 -252.32975 L 9.86458 253.4767 L 0.4580000000000002 261.50536999999997 L -7.57067 253.47669999999997 L -9.86458 -252.32975000000002 L -0.6889500000000002 -261.50538 z" stroke-linecap="round" />
</g>
</g>
</g>
</svg>